<svg width="24" height="24" viewBox="0 0 24 24" fill="none" xmlns="http://www.w3.org/2000/svg">
<path fill-rule="evenodd" clip-rule="evenodd" d="M11.8689 2.056C11.9118 2.05605 11.9553 2.0561 11.9992 2.0561C12.0432 2.0561 12.0866 2.05605 12.1296 2.056C12.7522 2.05531 13.2697 2.05474 13.7149 2.20229C14.5362 2.47445 15.1936 3.10442 15.4818 3.92195C15.5816 4.2049 15.6175 4.5169 15.6302 4.86093H19.7139C20.211 4.86093 20.6139 5.26387 20.6139 5.76093C20.6139 6.25799 20.211 6.66093 19.7139 6.66093H4.28452C3.78747 6.66093 3.38452 6.25799 3.38452 5.76093C3.38452 5.26387 3.78747 4.86093 4.28452 4.86093H8.36829C8.38099 4.5169 8.41687 4.20489 8.51663 3.92194C8.80485 3.10442 9.46224 2.47445 10.2835 2.20229C10.7288 2.05474 11.2463 2.05531 11.8689 2.056ZM10.1706 4.86093H13.8278C13.82 4.66351 13.8062 4.58277 13.7842 4.52044C13.6864 4.24305 13.4568 4.01301 13.1487 3.91091C13.0181 3.86763 12.8238 3.8561 11.9992 3.8561C11.1747 3.8561 10.9803 3.86763 10.8497 3.91091C10.5417 4.01301 10.312 4.24305 10.2142 4.52044C10.1922 4.58277 10.1785 4.66351 10.1706 4.86093ZM5.62048 7.67258C6.11377 7.61152 6.56316 7.96192 6.62421 8.45521L7.56099 16.0238C7.68768 17.0473 7.7748 17.7403 7.90058 18.264C8.02142 18.7671 8.15709 19.0159 8.32168 19.1904C8.41459 19.2889 8.5183 19.3782 8.63126 19.4566C8.83552 19.5983 9.11659 19.7022 9.65566 19.7596C10.2124 19.8189 10.9377 19.82 11.9992 19.82C13.0607 19.82 13.7861 19.8189 14.3428 19.7596C14.8819 19.7022 15.1629 19.5983 15.3672 19.4566C15.4802 19.3782 15.5839 19.2889 15.6768 19.1904C15.8414 19.0159 15.977 18.7671 16.0979 18.264C16.2237 17.7403 16.3108 17.0473 16.4375 16.0238L17.3742 8.45521C17.4353 7.96192 17.8847 7.61152 18.378 7.67258C18.8713 7.73364 19.2217 8.18302 19.1606 8.67632L18.2175 16.2959C18.0988 17.2555 18.0004 18.0501 17.8481 18.6844C17.6881 19.3504 17.4484 19.9354 16.9863 20.4254C16.8071 20.6153 16.6084 20.7862 16.3934 20.9354C15.8425 21.3177 15.225 21.4758 14.5333 21.5495C13.8701 21.6201 13.0485 21.6201 12.0484 21.62H11.9501C10.9499 21.6201 10.1283 21.6201 9.46512 21.5495C8.77343 21.4758 8.15593 21.3177 7.60501 20.9354C7.39008 20.7862 7.19133 20.6153 7.01216 20.4254C6.55007 19.9354 6.31034 19.3504 6.15036 18.6844C5.99802 18.0501 5.89969 17.2555 5.78094 16.2959L4.83784 8.67632C4.77679 8.18302 5.12719 7.73364 5.62048 7.67258Z" fill="#006EE4"/>
</svg>
