<svg width="28" height="28" viewBox="0 0 28 28" fill="none" xmlns="http://www.w3.org/2000/svg">
<path d="M25.9997 17.9951C25.9879 17.0049 25.5906 16.0785 24.8824 15.3869L23.3454 13.8865L24.8458 12.3495C25.5375 11.6407 25.9116 10.7055 25.8998 9.71526C25.888 8.72506 25.4908 7.7987 24.782 7.10704C23.9425 6.28769 22.8104 5.94895 21.728 6.08492C21.7422 5.94541 21.7487 5.80413 21.7469 5.66225C21.7351 4.67205 21.3378 3.74569 20.6296 3.05403C19.932 2.37301 19.0146 2 18.0415 2C18.0261 2 18.0107 2 17.9954 2C17.0052 2.01182 16.0788 2.40908 15.3872 3.11729L13.8868 4.65431L12.3498 3.15395C10.8866 1.72629 8.535 1.75466 7.10734 3.21779C6.2874 4.05783 5.94866 5.19167 6.08522 6.27468C4.99925 6.16414 3.87427 6.53066 3.05432 7.3707C2.36266 8.0795 1.98845 9.01473 2.00027 10.0049C2.0121 10.9951 2.40937 11.9215 3.11817 12.6131L4.6552 14.1135L3.1548 15.6505C2.46314 16.3593 2.08896 17.2945 2.10078 18.2847C2.1126 19.2749 2.50986 20.2013 3.21807 20.8929C3.93811 21.5952 4.87274 21.9452 5.80678 21.9452C5.96285 21.9452 6.11949 21.9352 6.27437 21.9157C6.16442 23.0016 6.53035 24.126 7.37039 24.946C8.06797 25.627 8.98547 26 9.95852 26C9.97389 26 9.98925 26 10.0046 26C10.9948 25.9882 11.9212 25.5909 12.6128 24.8827L14.1132 23.3457L15.6502 24.8461C16.359 25.5377 17.2949 25.9125 18.2845 25.9001C19.2747 25.8883 20.201 25.491 20.8927 24.7822C21.7126 23.9422 22.0514 22.8089 21.9148 21.7259C22.0401 21.7389 22.1666 21.7454 22.2925 21.7454C23.2567 21.7454 24.2209 21.3724 24.9463 20.6293C25.6379 19.9205 26.0116 18.9853 25.9997 17.9951ZM23.7829 19.4943C22.9807 20.316 21.66 20.3319 20.8383 19.5297L20.8288 19.5392L20.8164 19.5274L17.8452 16.8606C17.1057 16.1968 16.1043 15.9946 15.1655 16.3203C14.2244 16.6466 13.5611 17.4276 13.3902 18.4101C13.314 18.8499 13.2749 19.3542 13.2749 19.9075H14.9001C14.9001 19.447 14.9308 19.0361 14.9911 18.6879C15.0591 18.2966 15.3233 17.9856 15.6975 17.8556C16.0688 17.7267 16.4661 17.8071 16.7593 18.0701L19.7044 20.7132C20.0958 21.1005 20.3145 21.6159 20.321 22.1669C20.3275 22.7232 20.1177 23.2487 19.7293 23.6466C19.3409 24.0444 18.8207 24.2673 18.2644 24.2744C17.7093 24.2821 17.1825 24.071 16.7847 23.6826L14.0848 21.0472L11.4494 23.7471C11.061 24.1449 10.5408 24.3678 9.98453 24.3749C9.97566 24.3749 9.96739 24.3749 9.95852 24.3749C9.41229 24.3749 8.89677 24.165 8.50483 23.7831C7.68312 22.9809 7.66718 21.6603 8.46939 20.8386L8.45992 20.8291L8.47172 20.8167L11.1385 17.8455C11.8024 17.106 12.0045 16.1045 11.6788 15.1658C11.3525 14.2246 10.5716 13.5614 9.58905 13.3905C9.14922 13.3142 8.64495 13.2752 8.09162 13.2752V14.9003C8.55214 14.9003 8.96299 14.9311 9.31119 14.9914C9.70254 15.0594 10.0135 15.3236 10.1436 15.6978C10.2724 16.0697 10.192 16.4663 9.92897 16.7595L7.28588 19.7047C6.48308 20.5152 5.17009 20.5276 4.35251 19.7295C3.95466 19.3411 3.73179 18.8209 3.72469 18.2646C3.71819 17.7084 3.92807 17.1828 4.31646 16.785L6.95185 14.0851L4.25201 11.4497C3.85415 11.0613 3.63128 10.5411 3.62418 9.98482C3.61768 9.42853 3.82756 8.903 4.21595 8.50515C5.01816 7.68344 6.33882 7.66747 7.16054 8.46968L7.17001 8.46022L7.18242 8.47204L10.1536 11.1388C10.6602 11.594 11.2904 11.8316 11.9389 11.8316C12.2363 11.8316 12.5378 11.7814 12.8333 11.6791C13.7745 11.3528 14.4378 10.5718 14.6086 9.58933C14.6849 9.14892 14.7239 8.64526 14.7239 8.09193H13.0988C13.0988 8.55244 13.068 8.9627 13.0078 9.31149C12.9398 9.70284 12.6761 10.0138 12.3013 10.1439C11.9295 10.2727 11.5328 10.1923 11.2396 9.92925L8.29438 7.28617C7.90362 6.89896 7.68431 6.38346 7.67781 5.83249C7.67131 5.27621 7.88116 4.75068 8.26955 4.35283C8.65795 3.95498 9.17819 3.7321 9.73447 3.72501C10.2919 3.71791 10.8163 3.92837 11.2141 4.31676L13.914 6.95217L16.5494 4.25232C16.9378 3.85447 17.458 3.63161 18.0143 3.62451C18.0232 3.62451 18.0315 3.62451 18.0403 3.62451C18.5866 3.62451 19.102 3.83438 19.494 4.21686C19.8918 4.60525 20.1147 5.12548 20.1218 5.68176C20.1283 6.23804 19.9184 6.76357 19.53 7.16143L19.5395 7.17089L19.5277 7.18331L16.8609 10.1545C16.1971 10.894 15.9949 11.8955 16.3206 12.8342C16.6469 13.7754 17.4279 14.4386 18.4104 14.6095C18.8502 14.6858 19.3545 14.7248 19.9078 14.7248V13.0997C19.4467 13.0997 19.0364 13.0689 18.6882 13.0086C18.2969 12.9406 17.9859 12.6764 17.8559 12.3022C17.727 11.9303 17.8074 11.5337 18.0705 11.2404L20.7135 8.29529C21.1008 7.90394 21.6163 7.6852 22.1672 7.67869C22.1761 7.67869 22.1844 7.67869 22.1932 7.67869C22.7395 7.67869 23.255 7.88856 23.6469 8.27104C24.0448 8.65943 24.2676 9.17966 24.2747 9.73594C24.2812 10.2922 24.0714 10.8178 23.683 11.2156L21.0476 13.9155L23.7474 16.5509C24.1453 16.9393 24.3681 17.4595 24.3752 18.0158C24.3817 18.572 24.1719 19.0976 23.7835 19.4954L23.7829 19.4943Z" fill="#2990FF"/>
</svg>
