<svg width="28" height="28" viewBox="0 0 28 28" fill="none" xmlns="http://www.w3.org/2000/svg">
<path d="M21.5893 22.1666H23.3333C24.622 22.1666 25.7447 21.0885 25.3353 19.8666C24.7115 18.0045 23.1765 16.8784 20.4782 16.4883M16.9168 12.6751C17.2563 12.7825 17.6451 12.8333 18.0833 12.8333C20.0278 12.8333 21 11.8333 21 9.33325C21 6.83325 20.0278 5.83325 18.0833 5.83325C17.6451 5.83325 17.2563 5.88405 16.9168 5.99136M11.0833 16.3333C15.4854 16.3333 17.741 17.6175 18.4315 20.186C18.7183 21.2527 17.7712 22.1666 16.6667 22.1666H5.5C4.39543 22.1666 3.44839 21.2527 3.73515 20.186C4.42567 17.6175 6.68123 16.3333 11.0833 16.3333ZM11.0833 12.8333C13.0278 12.8333 14 11.8333 14 9.33325C14 6.83325 13.0278 5.83325 11.0833 5.83325C9.13889 5.83325 8.16667 6.83325 8.16667 9.33325C8.16667 11.8333 9.13889 12.8333 11.0833 12.8333Z" stroke="#546C84" stroke-width="2" stroke-linecap="round" stroke-linejoin="round"/>
</svg>
