<svg width="24" height="24" viewBox="0 0 24 24" fill="none" xmlns="http://www.w3.org/2000/svg">
<path fill-rule="evenodd" clip-rule="evenodd" d="M2.52881 5.07334C2.52881 4.57628 2.93175 4.17334 3.42881 4.17334H19.7154C20.2125 4.17334 20.6154 4.57628 20.6154 5.07334C20.6154 5.5704 20.2125 5.97334 19.7154 5.97334H3.42881C2.93175 5.97334 2.52881 5.5704 2.52881 5.07334ZM2.52881 9.7258C2.52881 9.22875 2.93175 8.8258 3.42881 8.8258H15.8833C16.3803 8.8258 16.7833 9.22875 16.7833 9.7258C16.7833 10.2229 16.3803 10.6258 15.8833 10.6258H3.42881C2.93175 10.6258 2.52881 10.2229 2.52881 9.7258ZM2.52881 14.3783C2.52881 13.8812 2.93175 13.4783 3.42881 13.4783H12.4293C12.9264 13.4783 13.3293 13.8812 13.3293 14.3783C13.3293 14.8753 12.9264 15.2783 12.4293 15.2783H3.42881C2.93175 15.2783 2.52881 14.8753 2.52881 14.3783Z" fill="white"/>
<path fill-rule="evenodd" clip-rule="evenodd" d="M17.3196 12.7171C17.746 11.7554 19.1108 11.7554 19.5372 12.7171L22.3428 19.0454C22.5666 19.5503 22.3388 20.1411 21.8339 20.3649C21.329 20.5888 20.7382 20.3609 20.5144 19.856L19.9208 18.5172H16.936L16.3424 19.856C16.1186 20.3609 15.5278 20.5888 15.0229 20.3649C14.5181 20.1411 14.2902 19.5503 14.514 19.0454L17.3196 12.7171ZM17.8226 16.5172H19.0342L18.4284 15.1508L17.8226 16.5172Z" fill="white"/>
</svg>
