<svg width="28" height="28" viewBox="0 0 28 28" fill="none" xmlns="http://www.w3.org/2000/svg">
<path d="M11.3597 6.99482C12.1761 4.77997 12.5843 3.67254 13.178 3.35574C13.6924 3.08129 14.3077 3.08129 14.8221 3.35574C15.4158 3.67254 15.824 4.77997 16.6404 6.99482L17.0338 8.06228C17.2698 8.70249 17.3878 9.0226 17.5912 9.26271C17.771 9.47492 17.9976 9.64137 18.2528 9.74861C18.5416 9.86996 18.8792 9.88447 19.5545 9.91349L20.6804 9.96187C23.0165 10.0623 24.1846 10.1125 24.6661 10.5854C25.0833 10.9951 25.2735 11.5866 25.1742 12.1659C25.0596 12.8347 24.1438 13.5693 22.3122 15.0385L21.4295 15.7466C20.9 16.1713 20.6353 16.3837 20.4723 16.6534C20.3282 16.8918 20.2416 17.1611 20.2195 17.4396C20.1946 17.7547 20.2853 18.0838 20.4667 18.7419L20.7691 19.8393C21.3965 22.1162 21.7102 23.2546 21.4141 23.8637C21.1575 24.3914 20.6598 24.757 20.084 24.8406C19.4194 24.9371 18.4453 24.2837 16.4969 22.9768L15.5579 22.347C14.9947 21.9693 14.7131 21.7804 14.4089 21.707C14.1401 21.6421 13.86 21.6421 13.5912 21.707C13.287 21.7804 13.0054 21.9693 12.4422 22.347L11.5032 22.9768C9.55484 24.2837 8.58067 24.9371 7.91608 24.8406C7.34034 24.757 6.84257 24.3914 6.58601 23.8637C6.28986 23.2546 6.60358 22.1162 7.23103 19.8393L7.53344 18.7419C7.71481 18.0838 7.80549 17.7547 7.78055 17.4396C7.75852 17.1611 7.67194 16.8918 7.52784 16.6534C7.36479 16.3837 7.10007 16.1713 6.57063 15.7466L5.68788 15.0385C3.85629 13.5693 2.94049 12.8347 2.82591 12.1659C2.72664 11.5866 2.91678 10.9951 3.33395 10.5854C3.8155 10.1125 4.98357 10.0623 7.3197 9.96187L8.44561 9.91349C9.12089 9.88447 9.45852 9.86996 9.74729 9.74861C10.0025 9.64137 10.2291 9.47492 10.4089 9.26271C10.6123 9.0226 10.7303 8.70249 10.9663 8.06228L11.3597 6.99482Z" fill="#007AFF"/>
</svg>
