<svg width="24" height="24" viewBox="0 0 24 24" fill="none" xmlns="http://www.w3.org/2000/svg">
<path fill-rule="evenodd" clip-rule="evenodd" d="M7.76471 2.1001C8.26177 2.1001 8.66471 2.50304 8.66471 3.0001V3.90316C8.95136 3.89982 9.25938 3.89993 9.59257 3.90005C9.65603 3.90007 9.72041 3.9001 9.78572 3.9001H15.3353V3.0001C15.3353 2.50304 15.7382 2.1001 16.2353 2.1001C16.7324 2.1001 17.1353 2.50304 17.1353 3.0001V3.98685C19.2809 4.40623 20.9 6.29644 20.9 8.56481V14.639C20.9 15.7261 20.9 16.5968 20.8425 17.3006C20.7835 18.0232 20.6593 18.6488 20.3659 19.2246C19.8962 20.1466 19.1466 20.8962 18.2246 21.366C17.6487 21.6594 17.0232 21.7836 16.3005 21.8426C15.5967 21.9001 14.726 21.9001 13.639 21.9001H10.3611C9.27398 21.9001 8.4033 21.9001 7.69952 21.8426C6.97686 21.7836 6.3513 21.6594 5.77545 21.366C4.85346 20.8962 4.10385 20.1466 3.63407 19.2246C3.34067 18.6488 3.21654 18.0232 3.15749 17.3006C3.09999 16.5968 3.1 15.7261 3.10001 14.639L3.10001 10.5858C3.10001 10.5205 3.09998 10.4561 3.09996 10.3927C3.09942 8.91686 3.09906 7.93473 3.39813 7.11702C3.8938 5.76176 4.96167 4.69389 6.31693 4.19822C6.49101 4.13455 6.67255 4.08446 6.86471 4.04504V3.0001C6.86471 2.50304 7.26766 2.1001 7.76471 2.1001ZM6.86471 5.91546C6.04082 6.23968 5.39356 6.90152 5.08861 7.7353C4.94793 8.11996 4.91153 8.6038 4.90268 9.68581H19.1V8.56481C19.1 7.29707 18.2765 6.22167 17.1353 5.84433V6.6001C17.1353 7.09715 16.7324 7.5001 16.2353 7.5001C15.7382 7.5001 15.3353 7.09715 15.3353 6.6001V5.7001H9.78572C9.34655 5.7001 8.978 5.70098 8.66471 5.70509V6.6001C8.66471 7.09715 8.26177 7.5001 7.76471 7.5001C7.26766 7.5001 6.86471 7.09715 6.86471 6.6001V5.91546ZM19.1 11.4858H4.90001V14.6001C4.90001 15.7351 4.90071 16.5321 4.95151 17.154C5.00146 17.7654 5.09532 18.1277 5.23789 18.4075C5.53509 18.9908 6.00933 19.465 6.59264 19.7622C6.87244 19.9048 7.23475 19.9986 7.8461 20.0486C8.46796 20.0994 9.26505 20.1001 10.4 20.1001H13.6C14.735 20.1001 15.5321 20.0994 16.1539 20.0486C16.7653 19.9986 17.1276 19.9048 17.4074 19.7622C17.9907 19.465 18.4649 18.9908 18.7621 18.4075C18.9047 18.1277 18.9985 17.7654 19.0485 17.154C19.0993 16.5321 19.1 15.7351 19.1 14.6001V11.4858Z" fill="#5995D2"/>
</svg>
