<svg width="24" height="24" viewBox="0 0 24 24" fill="none" xmlns="http://www.w3.org/2000/svg">
<path d="M12.0605 20.5815C10.8874 20.5815 9.78337 20.3574 8.74854 19.9092C7.7137 19.4665 6.80062 18.8494 6.00928 18.0581C5.22347 17.2668 4.60645 16.3537 4.1582 15.3188C3.70996 14.284 3.48584 13.18 3.48584 12.0068C3.48584 10.8337 3.70996 9.72965 4.1582 8.69482C4.60645 7.65999 5.22347 6.74967 6.00928 5.96387C6.80062 5.17253 7.71094 4.55273 8.74023 4.10449C9.77507 3.65625 10.8791 3.43213 12.0522 3.43213C13.231 3.43213 14.3377 3.65625 15.3726 4.10449C16.4074 4.55273 17.3205 5.17253 18.1118 5.96387C18.9032 6.74967 19.5229 7.65999 19.9712 8.69482C20.4194 9.72965 20.6436 10.8337 20.6436 12.0068C20.6436 13.18 20.4194 14.284 19.9712 15.3188C19.5229 16.3537 18.9032 17.2668 18.1118 18.0581C17.3205 18.8494 16.4074 19.4665 15.3726 19.9092C14.3377 20.3574 13.2337 20.5815 12.0605 20.5815ZM12.0605 18.8882C13.0179 18.8882 13.9116 18.7111 14.7417 18.3569C15.5718 18.0028 16.3022 17.5103 16.9331 16.8794C17.564 16.2485 18.0565 15.5181 18.4106 14.688C18.7648 13.8579 18.9419 12.9642 18.9419 12.0068C18.9419 11.055 18.7648 10.1641 18.4106 9.33398C18.0565 8.49837 17.564 7.76514 16.9331 7.13428C16.3022 6.50342 15.569 6.0109 14.7334 5.65674C13.9033 5.30257 13.0096 5.12549 12.0522 5.12549C11.1004 5.12549 10.2067 5.30257 9.37109 5.65674C8.54102 6.0109 7.81331 6.50342 7.18799 7.13428C6.56266 7.76514 6.07292 8.49837 5.71875 9.33398C5.36458 10.1641 5.1875 11.055 5.1875 12.0068C5.1875 12.9642 5.36458 13.8579 5.71875 14.688C6.07292 15.5181 6.56266 16.2485 7.18799 16.8794C7.81885 17.5103 8.54932 18.0028 9.37939 18.3569C10.215 18.7111 11.1087 18.8882 12.0605 18.8882ZM11.8779 13.6587C11.3522 13.6587 11.0894 13.4235 11.0894 12.9531C11.0894 12.9365 11.0894 12.9199 11.0894 12.9033C11.0894 12.8867 11.0894 12.8729 11.0894 12.8618C11.0894 12.48 11.1834 12.1701 11.3716 11.9321C11.5653 11.6942 11.8115 11.4728 12.1104 11.2681C12.4645 11.0246 12.7274 10.8171 12.8989 10.6455C13.076 10.474 13.1646 10.2581 13.1646 9.99805C13.1646 9.71582 13.0594 9.48617 12.8491 9.30908C12.6444 9.12646 12.3732 9.03516 12.0356 9.03516C11.8696 9.03516 11.7147 9.06283 11.5708 9.11816C11.4325 9.1735 11.3024 9.25374 11.1807 9.35889C11.0645 9.4585 10.9593 9.58301 10.8652 9.73242L10.7324 9.90674C10.6549 10.0119 10.5609 10.0949 10.4502 10.1558C10.3451 10.2166 10.2178 10.2471 10.0684 10.2471C9.89681 10.2471 9.74463 10.189 9.61182 10.0728C9.479 9.95654 9.4126 9.79883 9.4126 9.59961C9.4126 9.52214 9.41813 9.4502 9.4292 9.38379C9.4458 9.31185 9.46794 9.23991 9.49561 9.16797C9.62288 8.7806 9.91618 8.4458 10.3755 8.16357C10.8403 7.88135 11.4297 7.74023 12.1436 7.74023C12.6305 7.74023 13.0788 7.82601 13.4883 7.99756C13.9033 8.16911 14.2354 8.41536 14.4844 8.73633C14.7334 9.05729 14.8579 9.44743 14.8579 9.90674C14.8579 10.3937 14.7334 10.7783 14.4844 11.0605C14.2409 11.3428 13.9172 11.6195 13.5132 11.8906C13.2365 12.0677 13.0262 12.2365 12.8823 12.397C12.7384 12.5575 12.661 12.7456 12.6499 12.9614C12.6499 12.9725 12.6499 12.9891 12.6499 13.0112C12.6499 13.0278 12.6471 13.0444 12.6416 13.061C12.6305 13.2271 12.5558 13.3682 12.4175 13.4844C12.2847 13.6006 12.1048 13.6587 11.8779 13.6587ZM11.8613 16.207C11.5957 16.207 11.366 16.1213 11.1724 15.9497C10.9842 15.7726 10.8901 15.554 10.8901 15.2939C10.8901 15.0339 10.9842 14.818 11.1724 14.6465C11.3605 14.4694 11.5902 14.3809 11.8613 14.3809C12.1325 14.3809 12.3621 14.4666 12.5503 14.6382C12.7384 14.8097 12.8325 15.0283 12.8325 15.2939C12.8325 15.5596 12.7384 15.7782 12.5503 15.9497C12.3621 16.1213 12.1325 16.207 11.8613 16.207Z" fill="white"/>
</svg>
