<svg width="187" height="35" viewBox="0 0 187 35" fill="none" xmlns="http://www.w3.org/2000/svg">
<path d="M34.9995 23.3261C34.9823 21.8821 34.403 20.5312 33.3701 19.5225L31.1287 17.3345L33.3167 15.093C34.3254 14.0593 34.8711 12.6955 34.8538 11.2514C34.8366 9.80738 34.2573 8.45645 33.2236 7.44778C31.9994 6.25289 30.3484 5.75891 28.7699 5.95719C28.7906 5.75373 28.8001 5.54769 28.7975 5.34078C28.7803 3.89674 28.2009 2.54582 27.1681 1.53715C26.1508 0.543994 24.8128 0 23.3938 0C23.3714 0 23.349 0 23.3265 0C21.8825 0.0172422 20.5316 0.596583 19.5229 1.62939L17.3349 3.87088L15.0934 1.68284C12.9597 -0.399156 9.53018 -0.357773 7.44818 1.77595C6.25243 3.00101 5.75844 4.65454 5.95759 6.23393C4.37389 6.07271 2.73329 6.60722 1.53754 7.83228C0.528872 8.86596 -0.0168458 10.2298 0.000396428 11.6739C0.0176387 13.1179 0.59698 14.4688 1.63065 15.4775L3.87214 17.6655L1.6841 19.907C0.675432 20.9407 0.129714 22.3045 0.146956 23.7486C0.164199 25.1926 0.74354 26.5435 1.77635 27.5522C2.8264 28.5764 4.1894 29.0868 5.55153 29.0868C5.77913 29.0868 6.00759 29.0721 6.23346 29.0437C6.07311 30.6274 6.60676 32.2671 7.83182 33.4629C8.84911 34.456 10.1871 35 11.6061 35C11.6286 35 11.651 35 11.6734 35C13.1174 34.9828 14.4683 34.4034 15.477 33.3706L17.6651 31.1291L19.9065 33.3172C20.9402 34.3258 22.3049 34.8724 23.7481 34.8543C25.1922 34.8371 26.5431 34.2577 27.5518 33.224C28.7475 31.999 29.2415 30.3463 29.0423 28.7669C29.2251 28.7859 29.4096 28.7954 29.5932 28.7954C30.9993 28.7954 32.4054 28.2514 33.4632 27.1677C34.4719 26.134 35.0176 24.7702 35.0004 23.3261H34.9995ZM31.7666 25.5125C30.5967 26.7108 28.6708 26.7341 27.4724 25.5642L27.4586 25.578L27.4405 25.5607L23.1076 21.6718C22.0291 20.7036 20.5686 20.4088 19.1996 20.8838C17.8271 21.3597 16.8598 22.4985 16.6107 23.9314C16.4995 24.5728 16.4426 25.3081 16.4426 26.1151H18.8125C18.8125 25.4435 18.8574 24.8443 18.9453 24.3365C19.0444 23.7658 19.4298 23.3124 19.9755 23.1227C20.5169 22.9348 21.0963 23.052 21.5239 23.4356L25.8189 27.2901C26.3896 27.8548 26.7086 28.6066 26.7181 29.4101C26.7276 30.2213 26.4215 30.9877 25.8551 31.5679C25.2887 32.1481 24.5301 32.4732 23.7188 32.4835C22.9093 32.4947 22.1411 32.1869 21.5609 31.6205L17.6237 27.7772L13.7804 31.7145C13.214 32.2947 12.4553 32.6197 11.6441 32.6301C11.6311 32.6301 11.6191 32.6301 11.6061 32.6301C10.8095 32.6301 10.0578 32.324 9.48621 31.7671C8.28788 30.5972 8.2646 28.6712 9.43448 27.4729L9.42069 27.4591L9.43793 27.441L13.3269 23.108C14.2951 22.0295 14.5899 20.5691 14.1149 19.2001C13.639 17.8276 12.5001 16.8603 11.0673 16.6112C10.4259 16.4999 9.69053 16.4431 8.88359 16.4431V18.813C9.55518 18.813 10.1543 18.8578 10.6621 18.9458C11.2328 19.0449 11.6863 19.4303 11.876 19.976C12.0639 20.5183 11.9467 21.0967 11.563 21.5243L7.70854 25.8194C6.53779 27.0013 4.62304 27.0194 3.43074 25.8556C2.85054 25.2892 2.52552 24.5305 2.51517 23.7193C2.50569 22.908 2.81174 22.1416 3.37815 21.5614L7.22144 17.6241L3.28418 13.7809C2.70398 13.2144 2.37896 12.4558 2.36862 11.6445C2.35914 10.8333 2.66518 10.0669 3.23159 9.48668C4.40147 8.28834 6.32744 8.26506 7.52577 9.43495L7.53956 9.42116L7.55767 9.4384L11.8906 13.3274C12.6295 13.9912 13.5485 14.3378 14.4942 14.3378C14.9279 14.3378 15.3675 14.2645 15.7986 14.1154C17.1711 13.6395 18.1384 12.5006 18.3875 11.0678C18.4987 10.4255 18.5556 9.69099 18.5556 8.88406H16.1857C16.1857 9.55564 16.1408 10.1539 16.0529 10.6626C15.9538 11.2333 15.5693 11.6868 15.0227 11.8764C14.4804 12.0644 13.9019 11.9471 13.4743 11.5635L9.1793 7.709C8.60944 7.14432 8.2896 6.39256 8.28012 5.58907C8.27063 4.77782 8.57668 4.0114 9.14309 3.4312C9.70949 2.851 10.4682 2.52599 11.2794 2.51564C12.0924 2.5053 12.8571 2.81221 13.4373 3.37861L17.3745 7.22191L21.2178 3.28465C21.7842 2.70445 22.5429 2.37943 23.3541 2.36909C23.3671 2.36909 23.3791 2.36909 23.3921 2.36909C24.1887 2.36909 24.9404 2.67513 25.512 3.23292C26.0922 3.79932 26.4172 4.55799 26.4276 5.36923C26.437 6.18048 26.131 6.94689 25.5646 7.52709L25.5784 7.54089L25.5611 7.55899L21.6721 11.892C20.704 12.9705 20.4092 14.4309 20.8842 15.7999C21.3601 17.1724 22.4989 18.1397 23.9317 18.3888C24.5732 18.5 25.3085 18.5569 26.1155 18.5569V16.187C25.443 16.187 24.8447 16.1422 24.3369 16.0542C23.7662 15.9551 23.3128 15.5697 23.1231 15.024C22.9351 14.4817 23.0524 13.9033 23.436 13.4757L27.2905 9.18062C27.8552 8.60991 28.607 8.29093 29.4105 8.28144C29.4234 8.28144 29.4355 8.28144 29.4484 8.28144C30.245 8.28144 30.9967 8.58749 31.5683 9.14528C32.1485 9.71169 32.4735 10.4703 32.4839 11.2816C32.4934 12.0928 32.1873 12.8593 31.6209 13.4395L27.7776 17.3767L31.7149 21.22C32.2951 21.7864 32.6201 22.5451 32.6304 23.3563C32.6399 24.1676 32.3339 24.934 31.7675 25.5142L31.7666 25.5125Z" fill="#2C88F2"/>
<path d="M55.7472 5.03187C59.8741 5.03187 63.6863 6.67592 63.6863 11.2572C63.6863 13.7056 62.2527 15.804 60.0137 16.6083C63.0915 17.3075 64.8054 19.6162 64.8054 22.9034C64.8054 28.6391 60.1189 29.9331 55.3627 29.9331H45.1147V5.03101H55.7472V5.03187ZM48.3321 15.6988H54.2428C57.0412 15.6988 60.3982 15.4893 60.3982 11.7469C60.3982 8.00443 57.4955 7.82942 54.5574 7.82942H48.3321V15.6988ZM48.3321 27.17H54.9075C58.23 27.17 61.4828 26.9605 61.4828 22.5888C61.4828 18.217 57.6705 18.2868 54.348 18.2868H48.3321V27.17Z" fill="#F9F9F9"/>
<path d="M86.1744 7.90023H77.8153V29.9341H74.5272V7.90023H66.1682V5.03198H86.1735V7.90023H86.1744Z" fill="#F9F9F9"/>
<path d="M99.1147 30.5286C92.0152 30.5286 87.5728 25.4922 87.5728 17.5176C87.5728 10.3828 91.6997 4.47217 99.3595 4.47217C104.256 4.47217 109.188 7.19989 109.677 12.5165H106.39C105.656 9.26378 102.998 7.30507 99.2906 7.30507C93.3799 7.30507 90.897 12.2363 90.897 17.4823C90.897 23.8128 94.08 27.6949 99.2561 27.6949C103.488 27.6949 106.076 25.1766 106.6 20.5247H109.889C109.329 26.8552 105.272 30.5278 99.1164 30.5278L99.1147 30.5286Z" fill="#F9F9F9"/>
<path d="M116.497 29.9341H113.489V5.03198H116.497V29.9341Z" fill="#F9F9F9"/>
<path d="M137.481 20.8049C137.481 26.925 134.299 30.4924 128.808 30.4924C123.317 30.4924 119.994 26.925 119.994 20.979C119.994 15.0331 123.387 11.3613 128.843 11.3613C134.299 11.3613 137.481 14.8236 137.481 20.804V20.8049ZM123.072 20.9101C123.072 25.3517 125.206 27.9751 128.843 27.9751C132.48 27.9751 134.439 25.3172 134.439 20.8756C134.439 16.434 132.271 13.8459 128.773 13.8459C125.276 13.8459 123.072 16.609 123.072 20.9109V20.9101Z" fill="#F9F9F9"/>
<path d="M142.413 11.887L147.519 27.0308L152.485 11.887H155.599L148.989 29.9335H145.806L139.091 11.887H142.413H142.413Z" fill="#F9F9F9"/>
<path d="M165.705 30.5281C160.389 30.5281 157.206 27.0306 157.206 21.1553C157.206 15.28 160.599 11.3625 165.6 11.3625C171.546 11.3625 173.784 16.0843 173.784 21.2949V21.7148H160.213L160.178 21.9243C160.178 25.7719 162.312 28.0798 165.809 28.0798C168.397 28.0798 169.831 26.9607 170.671 24.2321H173.573C172.664 28.3944 169.971 30.5273 165.704 30.5273L165.705 30.5281ZM165.53 13.8101C162.627 13.8101 160.599 15.9085 160.214 19.3009H170.707C170.427 15.8731 168.503 13.8101 165.531 13.8101H165.53Z" fill="#F9F9F9"/>
<path d="M186.165 14.5455C185.85 14.5102 185.71 14.5102 185.396 14.5102C180.499 14.5102 179.625 18.2526 179.625 22.3097V29.9342H176.652V11.8876H179.485V15.7697C180.744 12.7273 182.947 11.4678 186.165 11.4678V14.5455H186.165Z" fill="#F9F9F9"/>
</svg>
