<svg width="24" height="24" viewBox="0 0 24 24" fill="none" xmlns="http://www.w3.org/2000/svg">
<path d="M10.7148 9.72931C10.7148 10.4301 10.235 10.9982 9.64326 10.9982C9.0515 10.9982 8.57178 10.4301 8.57178 9.72931C8.57178 9.02854 9.0515 8.46045 9.64326 8.46045C10.235 8.46045 10.7148 9.02854 10.7148 9.72931Z" fill="#2990FF"/>
<path d="M15.8579 9.72931C15.8579 10.4301 15.3782 10.9982 14.7864 10.9982C14.1946 10.9982 13.7149 10.4301 13.7149 9.72931C13.7149 9.02854 14.1946 8.46045 14.7864 8.46045C15.3782 8.46045 15.8579 9.02854 15.8579 9.72931Z" fill="#2990FF"/>
<path fill-rule="evenodd" clip-rule="evenodd" d="M12.0005 4.28486C7.7521 4.28486 4.32856 7.68036 4.32856 11.8439C4.32856 16.0074 7.7521 19.4029 12.0005 19.4029C16.2488 19.4029 19.6723 16.0074 19.6723 11.8439C19.6723 7.68036 16.2488 4.28486 12.0005 4.28486ZM2.52856 11.8439C2.52856 6.66383 6.78056 2.48486 12.0005 2.48486C17.2204 2.48486 21.4723 6.66383 21.4723 11.8439C21.4723 17.0239 17.2204 21.2029 12.0005 21.2029C6.78056 21.2029 2.52856 17.0239 2.52856 11.8439ZM15.3015 13.1103C15.7699 13.2765 16.015 13.7909 15.8489 14.2594L15.0006 13.9586C15.8489 14.2594 15.8487 14.2599 15.8485 14.2605L15.8481 14.2616L15.8472 14.2639L15.8454 14.2691L15.8408 14.2813C15.8374 14.2903 15.8333 14.301 15.8284 14.3132C15.8185 14.3377 15.8055 14.3685 15.789 14.4047C15.7561 14.477 15.7088 14.5716 15.6441 14.6809C15.5152 14.8989 15.3144 15.1807 15.017 15.4603C14.4055 16.0351 13.4369 16.5504 12.0005 16.5504C10.564 16.5504 9.59548 16.0351 8.98396 15.4604C8.6865 15.1808 8.48568 14.899 8.35679 14.681C8.29216 14.5716 8.24484 14.477 8.21189 14.4047C8.19538 14.3685 8.18239 14.3378 8.17256 14.3133C8.16764 14.3011 8.1635 14.2904 8.1601 14.2814L8.15555 14.2691L8.15368 14.264L8.15284 14.2617L8.15244 14.2605C8.15225 14.26 8.15206 14.2595 9.0003 13.9586L8.15206 14.2595C7.98591 13.791 8.23099 13.2766 8.69945 13.1104C9.16321 12.9459 9.67205 13.1845 9.84341 13.6438C9.84442 13.6462 9.84647 13.651 9.84964 13.6579C9.85888 13.6782 9.87719 13.7157 9.90632 13.765C9.96494 13.8642 10.0641 14.0053 10.2167 14.1487C10.5052 14.4199 11.0368 14.7504 12.0005 14.7504C12.9642 14.7504 13.4957 14.4199 13.7842 14.1487C13.9368 14.0053 14.036 13.8641 14.0946 13.765C14.1237 13.7157 14.142 13.6781 14.1513 13.6579C14.1544 13.6509 14.1565 13.6461 14.1575 13.6437C14.3289 13.1844 14.8377 12.9459 15.3015 13.1103ZM9.8478 13.6558C9.84781 13.6558 9.84782 13.6558 9.84783 13.6558C9.84806 13.6565 9.84829 13.6571 9.84853 13.6578L9.04413 13.9431C9.84852 13.6578 9.84834 13.6573 9.84816 13.6568L9.84783 13.6558L9.84781 13.6558L9.8478 13.6558Z" fill="#2990FF"/>
</svg>
