<svg width="24" height="24" viewBox="0 0 24 24" fill="none" xmlns="http://www.w3.org/2000/svg">
<rect width="24" height="24" rx="12" fill="#0098EA"/>
<path d="M16.0985 6.6001H7.90355C6.39677 6.6001 5.44175 8.22548 6.19979 9.5394L11.2575 18.3057C11.5875 18.8781 12.4146 18.8781 12.7446 18.3057L17.8033 9.5394C18.5603 8.22754 17.6053 6.6001 16.0996 6.6001H16.0985ZM11.2533 15.6769L10.1519 13.5451L7.49411 8.79168C7.31878 8.48744 7.53536 8.0976 7.90252 8.0976H11.2523V15.6779L11.2533 15.6769ZM16.5059 8.79065L13.8492 13.5461L12.7477 15.6769V8.09656H16.0975C16.4647 8.09656 16.6812 8.48641 16.5059 8.79065Z" fill="white"/>
</svg>
