<svg aria-hidden="true" xmlns="http://www.w3.org/2000/svg" xmlns:xlink="http://www.w3.org/1999/xlink"><symbol viewBox="0 0 24 24" fill="none" id="icon-arrow-down" xmlns="http://www.w3.org/2000/svg">
<path fill-rule="evenodd" clip-rule="evenodd" d="M5.24121 8.24665C5.56281 7.91778 6.08424 7.91778 6.40585 8.24665L12 13.967L17.5941 8.24665C17.9158 7.91778 18.4372 7.91778 18.7588 8.24665C19.0804 8.57551 19.0804 9.1087 18.7588 9.43756L12.5823 15.7534C12.2607 16.0822 11.7393 16.0822 11.4177 15.7534L5.24121 9.43756C4.9196 9.1087 4.9196 8.57551 5.24121 8.24665Z" fill="currentColor"/>
</symbol><symbol viewBox="0 0 25 24" fill="none" id="icon-arrow-prev" xmlns="http://www.w3.org/2000/svg">
<path fill-rule="evenodd" clip-rule="evenodd" d="M11.1251 4.26451C11.5313 4.6387 11.5572 5.27133 11.183 5.67753L6.28007 11H20.9993C21.5516 11 21.9993 11.4477 21.9993 12C21.9993 12.5523 21.5516 13 20.9993 13H6.28007L11.183 18.3225C11.5572 18.7287 11.5313 19.3613 11.1251 19.7355C10.7189 20.1097 10.0862 20.0837 9.71205 19.6775L3.26377 12.6775C2.9111 12.2947 2.9111 11.7053 3.26377 11.3225L9.71205 4.32248C10.0862 3.91627 10.7189 3.89032 11.1251 4.26451Z" fill="currentColor"/>
</symbol><symbol viewBox="0 0 32 32" fill="none" id="icon-bell" xmlns="http://www.w3.org/2000/svg">
<path d="M16.0001 7.33333C19.682 7.33333 22.6668 10.3181 22.6668 14V17.2396C22.6668 17.7294 22.8465 18.2022 23.172 18.5683L25.781 21.5035C26.6408 22.4708 25.9541 24 24.6599 24H7.34037C6.0461 24 5.35939 22.4708 6.21926 21.5035L8.82825 18.5683C9.15367 18.2022 9.33342 17.7294 9.33343 17.2396L9.33346 14C9.33346 10.3181 12.3182 7.33333 16.0001 7.33333ZM16.0001 7.33333V4M14.6667 28H17.3334" stroke="currentColor" stroke-width="2" stroke-linecap="round" stroke-linejoin="round"/>
</symbol><symbol viewBox="0 0 22 12" fill="none" id="icon-burger" xmlns="http://www.w3.org/2000/svg">
<path fill-rule="evenodd" clip-rule="evenodd" d="M0.0999756 1.0001C0.0999756 0.503041 0.502919 0.100098 0.999976 0.100098H21C21.497 0.100098 21.9 0.503041 21.9 1.0001C21.9 1.49715 21.497 1.9001 21 1.9001H0.999976C0.502919 1.9001 0.0999756 1.49715 0.0999756 1.0001ZM0.0999756 6.0001C0.0999756 5.50304 0.502919 5.1001 0.999976 5.1001H21C21.497 5.1001 21.9 5.50304 21.9 6.0001C21.9 6.49715 21.497 6.9001 21 6.9001H0.999976C0.502919 6.9001 0.0999756 6.49715 0.0999756 6.0001ZM0.0999756 11.0001C0.0999756 10.503 0.502919 10.1001 0.999976 10.1001H21C21.497 10.1001 21.9 10.503 21.9 11.0001C21.9 11.4972 21.497 11.9001 21 11.9001H0.999976C0.502919 11.9001 0.0999756 11.4972 0.0999756 11.0001Z" fill="currentColor"/>
</symbol><symbol viewBox="0 0 24 24" fill="none" id="icon-calendar" xmlns="http://www.w3.org/2000/svg">
<path fill-rule="evenodd" clip-rule="evenodd" d="M7.76471 2.1001C8.26177 2.1001 8.66471 2.50304 8.66471 3.0001V3.90316C8.95136 3.89982 9.25938 3.89993 9.59257 3.90005C9.65603 3.90007 9.72041 3.9001 9.78572 3.9001H15.3353V3.0001C15.3353 2.50304 15.7382 2.1001 16.2353 2.1001C16.7324 2.1001 17.1353 2.50304 17.1353 3.0001V3.98685C19.2809 4.40623 20.9 6.29644 20.9 8.56481V14.639C20.9 15.7261 20.9 16.5968 20.8425 17.3006C20.7835 18.0232 20.6593 18.6488 20.3659 19.2246C19.8962 20.1466 19.1466 20.8962 18.2246 21.366C17.6487 21.6594 17.0232 21.7836 16.3005 21.8426C15.5967 21.9001 14.726 21.9001 13.639 21.9001H10.3611C9.27398 21.9001 8.4033 21.9001 7.69952 21.8426C6.97686 21.7836 6.3513 21.6594 5.77545 21.366C4.85346 20.8962 4.10385 20.1466 3.63407 19.2246C3.34067 18.6488 3.21654 18.0232 3.15749 17.3006C3.09999 16.5968 3.1 15.7261 3.10001 14.639L3.10001 10.5858C3.10001 10.5205 3.09998 10.4561 3.09996 10.3927C3.09942 8.91686 3.09906 7.93473 3.39813 7.11702C3.8938 5.76176 4.96167 4.69389 6.31693 4.19822C6.49101 4.13455 6.67255 4.08446 6.86471 4.04504V3.0001C6.86471 2.50304 7.26766 2.1001 7.76471 2.1001ZM6.86471 5.91546C6.04082 6.23968 5.39356 6.90152 5.08861 7.7353C4.94793 8.11996 4.91153 8.6038 4.90268 9.68581H19.1V8.56481C19.1 7.29707 18.2765 6.22167 17.1353 5.84433V6.6001C17.1353 7.09715 16.7324 7.5001 16.2353 7.5001C15.7382 7.5001 15.3353 7.09715 15.3353 6.6001V5.7001H9.78572C9.34655 5.7001 8.978 5.70098 8.66471 5.70509V6.6001C8.66471 7.09715 8.26177 7.5001 7.76471 7.5001C7.26766 7.5001 6.86471 7.09715 6.86471 6.6001V5.91546ZM19.1 11.4858H4.90001V14.6001C4.90001 15.7351 4.90071 16.5321 4.95151 17.154C5.00146 17.7654 5.09532 18.1277 5.23789 18.4075C5.53509 18.9908 6.00933 19.465 6.59264 19.7622C6.87244 19.9048 7.23475 19.9986 7.8461 20.0486C8.46796 20.0994 9.26505 20.1001 10.4 20.1001H13.6C14.735 20.1001 15.5321 20.0994 16.1539 20.0486C16.7653 19.9986 17.1276 19.9048 17.4074 19.7622C17.9907 19.465 18.4649 18.9908 18.7621 18.4075C18.9047 18.1277 18.9985 17.7654 19.0485 17.154C19.0993 16.5321 19.1 15.7351 19.1 14.6001V11.4858Z" fill="currentColor"/>
</symbol><symbol viewBox="0 0 24 24" fill="none" id="icon-close" xmlns="http://www.w3.org/2000/svg">
<path fill-rule="evenodd" clip-rule="evenodd" d="M6.25105 6.25105C6.58579 5.91632 7.1285 5.91632 7.46323 6.25105L12 10.7878L16.5368 6.25105C16.8715 5.91632 17.4142 5.91632 17.7489 6.25105C18.0837 6.58579 18.0837 7.1285 17.7489 7.46323L13.2122 12L17.7489 16.5368C18.0837 16.8715 18.0837 17.4142 17.7489 17.7489C17.4142 18.0837 16.8715 18.0837 16.5368 17.7489L12 13.2122L7.46323 17.7489C7.1285 18.0837 6.58579 18.0837 6.25105 17.7489C5.91632 17.4142 5.91632 16.8715 6.25105 16.5368L10.7878 12L6.25105 7.46323C5.91632 7.1285 5.91632 6.58579 6.25105 6.25105Z" fill="currentColor"/>
</symbol><symbol viewBox="0 0 28 28" fill="none" id="icon-clover" xmlns="http://www.w3.org/2000/svg">
<path d="M25.9997 17.9951C25.9879 17.0049 25.5906 16.0785 24.8824 15.3869L23.3454 13.8865L24.8458 12.3495C25.5375 11.6407 25.9116 10.7055 25.8998 9.71526C25.888 8.72506 25.4908 7.7987 24.782 7.10704C23.9425 6.28769 22.8104 5.94895 21.728 6.08492C21.7422 5.94541 21.7487 5.80413 21.7469 5.66225C21.7351 4.67205 21.3378 3.74569 20.6296 3.05403C19.932 2.37301 19.0146 2 18.0415 2C18.0261 2 18.0107 2 17.9954 2C17.0052 2.01182 16.0788 2.40908 15.3872 3.11729L13.8868 4.65431L12.3498 3.15395C10.8866 1.72629 8.535 1.75466 7.10734 3.21779C6.2874 4.05783 5.94866 5.19167 6.08522 6.27468C4.99925 6.16414 3.87427 6.53066 3.05432 7.3707C2.36266 8.0795 1.98845 9.01473 2.00027 10.0049C2.0121 10.9951 2.40937 11.9215 3.11817 12.6131L4.6552 14.1135L3.1548 15.6505C2.46314 16.3593 2.08896 17.2945 2.10078 18.2847C2.1126 19.2749 2.50986 20.2013 3.21807 20.8929C3.93811 21.5952 4.87274 21.9452 5.80678 21.9452C5.96285 21.9452 6.11949 21.9352 6.27437 21.9157C6.16442 23.0016 6.53035 24.126 7.37039 24.946C8.06797 25.627 8.98547 26 9.95852 26C9.97389 26 9.98925 26 10.0046 26C10.9948 25.9882 11.9212 25.5909 12.6128 24.8827L14.1132 23.3457L15.6502 24.8461C16.359 25.5377 17.2949 25.9125 18.2845 25.9001C19.2747 25.8883 20.201 25.491 20.8927 24.7822C21.7126 23.9422 22.0514 22.8089 21.9148 21.7259C22.0401 21.7389 22.1666 21.7454 22.2925 21.7454C23.2567 21.7454 24.2209 21.3724 24.9463 20.6293C25.6379 19.9205 26.0116 18.9853 25.9997 17.9951ZM23.7829 19.4943C22.9807 20.316 21.66 20.3319 20.8383 19.5297L20.8288 19.5392L20.8164 19.5274L17.8452 16.8606C17.1057 16.1968 16.1043 15.9946 15.1655 16.3203C14.2244 16.6466 13.5611 17.4276 13.3902 18.4101C13.314 18.8499 13.2749 19.3542 13.2749 19.9075H14.9001C14.9001 19.447 14.9308 19.0361 14.9911 18.6879C15.0591 18.2966 15.3233 17.9856 15.6975 17.8556C16.0688 17.7267 16.4661 17.8071 16.7593 18.0701L19.7044 20.7132C20.0958 21.1005 20.3145 21.6159 20.321 22.1669C20.3275 22.7232 20.1177 23.2487 19.7293 23.6466C19.3409 24.0444 18.8207 24.2673 18.2644 24.2744C17.7093 24.2821 17.1825 24.071 16.7847 23.6826L14.0848 21.0472L11.4494 23.7471C11.061 24.1449 10.5408 24.3678 9.98453 24.3749C9.97566 24.3749 9.96739 24.3749 9.95852 24.3749C9.41229 24.3749 8.89677 24.165 8.50483 23.7831C7.68312 22.9809 7.66718 21.6603 8.46939 20.8386L8.45992 20.8291L8.47172 20.8167L11.1385 17.8455C11.8024 17.106 12.0045 16.1045 11.6788 15.1658C11.3525 14.2246 10.5716 13.5614 9.58905 13.3905C9.14922 13.3142 8.64495 13.2752 8.09162 13.2752V14.9003C8.55214 14.9003 8.96299 14.9311 9.31119 14.9914C9.70254 15.0594 10.0135 15.3236 10.1436 15.6978C10.2724 16.0697 10.192 16.4663 9.92897 16.7595L7.28588 19.7047C6.48308 20.5152 5.17009 20.5276 4.35251 19.7295C3.95466 19.3411 3.73179 18.8209 3.72469 18.2646C3.71819 17.7084 3.92807 17.1828 4.31646 16.785L6.95185 14.0851L4.25201 11.4497C3.85415 11.0613 3.63128 10.5411 3.62418 9.98482C3.61768 9.42853 3.82756 8.903 4.21595 8.50515C5.01816 7.68344 6.33882 7.66747 7.16054 8.46968L7.17001 8.46022L7.18242 8.47204L10.1536 11.1388C10.6602 11.594 11.2904 11.8316 11.9389 11.8316C12.2363 11.8316 12.5378 11.7814 12.8333 11.6791C13.7745 11.3528 14.4378 10.5718 14.6086 9.58933C14.6849 9.14892 14.7239 8.64526 14.7239 8.09193H13.0988C13.0988 8.55244 13.068 8.9627 13.0078 9.31149C12.9398 9.70284 12.6761 10.0138 12.3013 10.1439C11.9295 10.2727 11.5328 10.1923 11.2396 9.92925L8.29438 7.28617C7.90362 6.89896 7.68431 6.38346 7.67781 5.83249C7.67131 5.27621 7.88116 4.75068 8.26955 4.35283C8.65795 3.95498 9.17819 3.7321 9.73447 3.72501C10.2919 3.71791 10.8163 3.92837 11.2141 4.31676L13.914 6.95217L16.5494 4.25232C16.9378 3.85447 17.458 3.63161 18.0143 3.62451C18.0232 3.62451 18.0315 3.62451 18.0403 3.62451C18.5866 3.62451 19.102 3.83438 19.494 4.21686C19.8918 4.60525 20.1147 5.12548 20.1218 5.68176C20.1283 6.23804 19.9184 6.76357 19.53 7.16143L19.5395 7.17089L19.5277 7.18331L16.8609 10.1545C16.1971 10.894 15.9949 11.8955 16.3206 12.8342C16.6469 13.7754 17.4279 14.4386 18.4104 14.6095C18.8502 14.6858 19.3545 14.7248 19.9078 14.7248V13.0997C19.4467 13.0997 19.0364 13.0689 18.6882 13.0086C18.2969 12.9406 17.9859 12.6764 17.8559 12.3022C17.727 11.9303 17.8074 11.5337 18.0705 11.2404L20.7135 8.29529C21.1008 7.90394 21.6163 7.6852 22.1672 7.67869C22.1761 7.67869 22.1844 7.67869 22.1932 7.67869C22.7395 7.67869 23.255 7.88856 23.6469 8.27104C24.0448 8.65943 24.2676 9.17966 24.2747 9.73594C24.2812 10.2922 24.0714 10.8178 23.683 11.2156L21.0476 13.9155L23.7474 16.5509C24.1453 16.9393 24.3681 17.4595 24.3752 18.0158C24.3817 18.572 24.1719 19.0976 23.7835 19.4954L23.7829 19.4943Z" fill="currentColor"/>
</symbol><symbol viewBox="0 0 28 28" fill="none" id="icon-coins" xmlns="http://www.w3.org/2000/svg">
<path d="M8.16671 6.17144C4.7933 7.17542 2.33337 10.3004 2.33337 13.9999C2.33337 17.6994 4.7933 20.8244 8.16671 21.8284M25.6667 13.9999C25.6667 18.5102 22.0104 22.1666 17.5 22.1666C12.9897 22.1666 9.33337 18.5102 9.33337 13.9999C9.33337 9.48959 12.9897 5.83325 17.5 5.83325C22.0104 5.83325 25.6667 9.48959 25.6667 13.9999Z" stroke="currentColor" stroke-width="2" stroke-linecap="round" stroke-linejoin="round"/>
</symbol><symbol viewBox="0 0 24 24" fill="none" id="icon-dollar" xmlns="http://www.w3.org/2000/svg">
<path d="M17.0023 5H9.50171C7.56871 5 6.00171 6.567 6.00171 8.5V8.5C6.00171 10.433 7.56871 12 9.50171 12H14.5024C16.4354 12 18.0024 13.567 18.0024 15.5V15.5C18.0024 17.433 16.4354 19 14.5024 19H6.00171M12.002 3V21" stroke="currentColor" stroke-width="2" stroke-linecap="round" stroke-linejoin="round"/>
</symbol><symbol viewBox="0 0 28 28" fill="none" id="icon-friends" xmlns="http://www.w3.org/2000/svg">
<path d="M21.5893 22.1666H23.3333C24.622 22.1666 25.7447 21.0885 25.3353 19.8666C24.7115 18.0045 23.1765 16.8784 20.4782 16.4883M16.9168 12.6751C17.2563 12.7825 17.6451 12.8333 18.0833 12.8333C20.0278 12.8333 21 11.8333 21 9.33325C21 6.83325 20.0278 5.83325 18.0833 5.83325C17.6451 5.83325 17.2563 5.88405 16.9168 5.99136M11.0833 16.3333C15.4854 16.3333 17.741 17.6175 18.4315 20.186C18.7183 21.2527 17.7712 22.1666 16.6667 22.1666H5.5C4.39543 22.1666 3.44839 21.2527 3.73515 20.186C4.42567 17.6175 6.68123 16.3333 11.0833 16.3333ZM11.0833 12.8333C13.0278 12.8333 14 11.8333 14 9.33325C14 6.83325 13.0278 5.83325 11.0833 5.83325C9.13889 5.83325 8.16667 6.83325 8.16667 9.33325C8.16667 11.8333 9.13889 12.8333 11.0833 12.8333Z" stroke="currentColor" stroke-width="2" stroke-linecap="round" stroke-linejoin="round"/>
</symbol><symbol viewBox="0 0 24 24" fill="none" id="icon-instruction" xmlns="http://www.w3.org/2000/svg">
<path fill-rule="evenodd" clip-rule="evenodd" d="M2.52881 5.07334C2.52881 4.57628 2.93175 4.17334 3.42881 4.17334H19.7154C20.2125 4.17334 20.6154 4.57628 20.6154 5.07334C20.6154 5.5704 20.2125 5.97334 19.7154 5.97334H3.42881C2.93175 5.97334 2.52881 5.5704 2.52881 5.07334ZM2.52881 9.7258C2.52881 9.22875 2.93175 8.8258 3.42881 8.8258H15.8833C16.3803 8.8258 16.7833 9.22875 16.7833 9.7258C16.7833 10.2229 16.3803 10.6258 15.8833 10.6258H3.42881C2.93175 10.6258 2.52881 10.2229 2.52881 9.7258ZM2.52881 14.3783C2.52881 13.8812 2.93175 13.4783 3.42881 13.4783H12.4293C12.9264 13.4783 13.3293 13.8812 13.3293 14.3783C13.3293 14.8753 12.9264 15.2783 12.4293 15.2783H3.42881C2.93175 15.2783 2.52881 14.8753 2.52881 14.3783Z" fill="currentColor"/>
<path fill-rule="evenodd" clip-rule="evenodd" d="M17.3196 12.7171C17.746 11.7554 19.1108 11.7554 19.5372 12.7171L22.3428 19.0454C22.5666 19.5503 22.3388 20.1411 21.8339 20.3649C21.329 20.5888 20.7382 20.3609 20.5144 19.856L19.9208 18.5172H16.936L16.3424 19.856C16.1186 20.3609 15.5278 20.5888 15.0229 20.3649C14.5181 20.1411 14.2902 19.5503 14.514 19.0454L17.3196 12.7171ZM17.8226 16.5172H19.0342L18.4284 15.1508L17.8226 16.5172Z" fill="currentColor"/>
</symbol><symbol viewBox="0 0 24 24" fill="none" id="icon-points" xmlns="http://www.w3.org/2000/svg">
<path d="M14 6C14 7.10457 13.1046 8 12 8C10.8954 8 10 7.10457 10 6C10 4.89543 10.8954 4 12 4C13.1046 4 14 4.89543 14 6Z" fill="currentColor"/>
<path d="M14 12C14 13.1046 13.1046 14 12 14C10.8954 14 10 13.1046 10 12C10 10.8954 10.8954 10 12 10C13.1046 10 14 10.8954 14 12Z" fill="currentColor"/>
<path d="M14 18C14 19.1046 13.1046 20 12 20C10.8954 20 10 19.1046 10 18C10 16.8954 10.8954 16 12 16C13.1046 16 14 16.8954 14 18Z" fill="currentColor"/>
</symbol><symbol viewBox="0 0 24 24" fill="none" id="icon-question" xmlns="http://www.w3.org/2000/svg">
<path d="M12.0605 20.5815C10.8874 20.5815 9.78337 20.3574 8.74854 19.9092C7.7137 19.4665 6.80062 18.8494 6.00928 18.0581C5.22347 17.2668 4.60645 16.3537 4.1582 15.3188C3.70996 14.284 3.48584 13.18 3.48584 12.0068C3.48584 10.8337 3.70996 9.72965 4.1582 8.69482C4.60645 7.65999 5.22347 6.74967 6.00928 5.96387C6.80062 5.17253 7.71094 4.55273 8.74023 4.10449C9.77507 3.65625 10.8791 3.43213 12.0522 3.43213C13.231 3.43213 14.3377 3.65625 15.3726 4.10449C16.4074 4.55273 17.3205 5.17253 18.1118 5.96387C18.9032 6.74967 19.5229 7.65999 19.9712 8.69482C20.4194 9.72965 20.6436 10.8337 20.6436 12.0068C20.6436 13.18 20.4194 14.284 19.9712 15.3188C19.5229 16.3537 18.9032 17.2668 18.1118 18.0581C17.3205 18.8494 16.4074 19.4665 15.3726 19.9092C14.3377 20.3574 13.2337 20.5815 12.0605 20.5815ZM12.0605 18.8882C13.0179 18.8882 13.9116 18.7111 14.7417 18.3569C15.5718 18.0028 16.3022 17.5103 16.9331 16.8794C17.564 16.2485 18.0565 15.5181 18.4106 14.688C18.7648 13.8579 18.9419 12.9642 18.9419 12.0068C18.9419 11.055 18.7648 10.1641 18.4106 9.33398C18.0565 8.49837 17.564 7.76514 16.9331 7.13428C16.3022 6.50342 15.569 6.0109 14.7334 5.65674C13.9033 5.30257 13.0096 5.12549 12.0522 5.12549C11.1004 5.12549 10.2067 5.30257 9.37109 5.65674C8.54102 6.0109 7.81331 6.50342 7.18799 7.13428C6.56266 7.76514 6.07292 8.49837 5.71875 9.33398C5.36458 10.1641 5.1875 11.055 5.1875 12.0068C5.1875 12.9642 5.36458 13.8579 5.71875 14.688C6.07292 15.5181 6.56266 16.2485 7.18799 16.8794C7.81885 17.5103 8.54932 18.0028 9.37939 18.3569C10.215 18.7111 11.1087 18.8882 12.0605 18.8882ZM11.8779 13.6587C11.3522 13.6587 11.0894 13.4235 11.0894 12.9531C11.0894 12.9365 11.0894 12.9199 11.0894 12.9033C11.0894 12.8867 11.0894 12.8729 11.0894 12.8618C11.0894 12.48 11.1834 12.1701 11.3716 11.9321C11.5653 11.6942 11.8115 11.4728 12.1104 11.2681C12.4645 11.0246 12.7274 10.8171 12.8989 10.6455C13.076 10.474 13.1646 10.2581 13.1646 9.99805C13.1646 9.71582 13.0594 9.48617 12.8491 9.30908C12.6444 9.12646 12.3732 9.03516 12.0356 9.03516C11.8696 9.03516 11.7147 9.06283 11.5708 9.11816C11.4325 9.1735 11.3024 9.25374 11.1807 9.35889C11.0645 9.4585 10.9593 9.58301 10.8652 9.73242L10.7324 9.90674C10.6549 10.0119 10.5609 10.0949 10.4502 10.1558C10.3451 10.2166 10.2178 10.2471 10.0684 10.2471C9.89681 10.2471 9.74463 10.189 9.61182 10.0728C9.479 9.95654 9.4126 9.79883 9.4126 9.59961C9.4126 9.52214 9.41813 9.4502 9.4292 9.38379C9.4458 9.31185 9.46794 9.23991 9.49561 9.16797C9.62288 8.7806 9.91618 8.4458 10.3755 8.16357C10.8403 7.88135 11.4297 7.74023 12.1436 7.74023C12.6305 7.74023 13.0788 7.82601 13.4883 7.99756C13.9033 8.16911 14.2354 8.41536 14.4844 8.73633C14.7334 9.05729 14.8579 9.44743 14.8579 9.90674C14.8579 10.3937 14.7334 10.7783 14.4844 11.0605C14.2409 11.3428 13.9172 11.6195 13.5132 11.8906C13.2365 12.0677 13.0262 12.2365 12.8823 12.397C12.7384 12.5575 12.661 12.7456 12.6499 12.9614C12.6499 12.9725 12.6499 12.9891 12.6499 13.0112C12.6499 13.0278 12.6471 13.0444 12.6416 13.061C12.6305 13.2271 12.5558 13.3682 12.4175 13.4844C12.2847 13.6006 12.1048 13.6587 11.8779 13.6587ZM11.8613 16.207C11.5957 16.207 11.366 16.1213 11.1724 15.9497C10.9842 15.7726 10.8901 15.554 10.8901 15.2939C10.8901 15.0339 10.9842 14.818 11.1724 14.6465C11.3605 14.4694 11.5902 14.3809 11.8613 14.3809C12.1325 14.3809 12.3621 14.4666 12.5503 14.6382C12.7384 14.8097 12.8325 15.0283 12.8325 15.2939C12.8325 15.5596 12.7384 15.7782 12.5503 15.9497C12.3621 16.1213 12.1325 16.207 11.8613 16.207Z" fill="currentColor"/>
</symbol><symbol viewBox="0 0 24 24" fill="none" id="icon-star" xmlns="http://www.w3.org/2000/svg">
<path d="M11.0772 4.21955C11.4188 3.39828 12.5823 3.39828 12.9239 4.21955L14.7818 8.68645L19.6044 9.07305C20.491 9.14413 20.8506 10.2507 20.175 10.8293L16.5008 13.9765L17.6233 18.6823C17.8297 19.5475 16.8885 20.2313 16.1294 19.7677L12.0005 17.246L7.87169 19.7677C7.11258 20.2313 6.17135 19.5475 6.37775 18.6823L7.5003 13.9765L3.82608 10.8293C3.15051 10.2507 3.51003 9.14413 4.3967 9.07305L9.21924 8.68645L11.0772 4.21955Z" stroke="currentColor" stroke-width="2" stroke-linecap="round" stroke-linejoin="round"/>
</symbol><symbol viewBox="0 0 18 18" fill="none" id="icon-star-bold" xmlns="http://www.w3.org/2000/svg">
<path d="M8.07666 3.71993C8.41826 2.89864 9.58171 2.89864 9.9233 3.71993L11.0858 6.51502L14.1034 6.75694C14.99 6.82802 15.3496 7.93453 14.674 8.51319L12.375 10.4826L13.0774 13.4272C13.2838 14.2924 12.3425 14.9763 11.5834 14.5126L8.99998 12.9347L6.41655 14.5126C5.65745 14.9763 4.7162 14.2924 4.92259 13.4272L5.62498 10.4826L3.32594 8.5132C2.6504 7.93453 3.00993 6.82802 3.89658 6.75694L6.91412 6.51502L8.07666 3.71993Z" stroke="currentColor" stroke-width="2" stroke-linecap="round" stroke-linejoin="round"/>
</symbol><symbol viewBox="0 0 28 28" fill="none" id="icon-star-fill" xmlns="http://www.w3.org/2000/svg">
<path d="M11.3597 6.99482C12.1761 4.77997 12.5843 3.67254 13.178 3.35574C13.6924 3.08129 14.3077 3.08129 14.8221 3.35574C15.4158 3.67254 15.824 4.77997 16.6404 6.99482L17.0338 8.06228C17.2698 8.70249 17.3878 9.0226 17.5912 9.26271C17.771 9.47492 17.9976 9.64137 18.2528 9.74861C18.5416 9.86996 18.8792 9.88447 19.5545 9.91349L20.6804 9.96187C23.0165 10.0623 24.1846 10.1125 24.6661 10.5854C25.0833 10.9951 25.2735 11.5866 25.1742 12.1659C25.0596 12.8347 24.1438 13.5693 22.3122 15.0385L21.4295 15.7466C20.9 16.1713 20.6353 16.3837 20.4723 16.6534C20.3282 16.8918 20.2416 17.1611 20.2195 17.4396C20.1946 17.7547 20.2853 18.0838 20.4667 18.7419L20.7691 19.8393C21.3965 22.1162 21.7102 23.2546 21.4141 23.8637C21.1575 24.3914 20.6598 24.757 20.084 24.8406C19.4194 24.9371 18.4453 24.2837 16.4969 22.9768L15.5579 22.347C14.9947 21.9693 14.7131 21.7804 14.4089 21.707C14.1401 21.6421 13.86 21.6421 13.5912 21.707C13.287 21.7804 13.0054 21.9693 12.4422 22.347L11.5032 22.9768C9.55484 24.2837 8.58067 24.9371 7.91608 24.8406C7.34034 24.757 6.84257 24.3914 6.58601 23.8637C6.28986 23.2546 6.60358 22.1162 7.23103 19.8393L7.53344 18.7419C7.71481 18.0838 7.80549 17.7547 7.78055 17.4396C7.75852 17.1611 7.67194 16.8918 7.52784 16.6534C7.36479 16.3837 7.10007 16.1713 6.57063 15.7466L5.68788 15.0385C3.85629 13.5693 2.94049 12.8347 2.82591 12.1659C2.72664 11.5866 2.91678 10.9951 3.33395 10.5854C3.8155 10.1125 4.98357 10.0623 7.3197 9.96187L8.44561 9.91349C9.12089 9.88447 9.45852 9.86996 9.74729 9.74861C10.0025 9.64137 10.2291 9.47492 10.4089 9.26271C10.6123 9.0226 10.7303 8.70249 10.9663 8.06228L11.3597 6.99482Z" fill="currentColor"/>
</symbol><symbol viewBox="0 0 24 24" fill="none" id="icon-timer" xmlns="http://www.w3.org/2000/svg">
<path d="M12 9V13M10 2H14M17.6569 7.34315L19 6M12 21C16.4183 21 20 17.4183 20 13C20 8.58172 16.4183 5 12 5C7.58172 5 4 8.58172 4 13C4 17.4183 7.58172 21 12 21Z" stroke="currentColor" stroke-width="2" stroke-linecap="round" stroke-linejoin="round"/>
</symbol><symbol viewBox="0 0 14 15" fill="none" id="icon-ton" xmlns="http://www.w3.org/2000/svg">
<g>
<path d="M11.7271 0H2.27236C0.533955 0 -0.567869 2.00914 0.306688 3.63327L6.14183 14.4694C6.52259 15.1769 7.47687 15.1769 7.85763 14.4694L13.694 3.63327C14.5673 2.01169 13.4655 0 11.7283 0H11.7271ZM6.13707 11.2198L4.86629 8.58472L1.79998 2.70902C1.5977 2.33294 1.84758 1.85106 2.27117 1.85106H6.13588V11.2211L6.13707 11.2198ZM12.1971 2.70774L9.13199 8.586L7.8612 11.2198V1.84978H11.7259C12.1495 1.84978 12.3994 2.33167 12.1971 2.70774Z" fill="currentColor"/>
</g>
</symbol><symbol viewBox="0 0 28 28" fill="none" id="icon-zap" xmlns="http://www.w3.org/2000/svg">
<path d="M5.78693 14.3369L12.8926 5.18301C13.649 4.20867 15.3066 4.70535 15.3066 5.90631V10.3188C15.3066 11.0021 15.9033 11.556 16.6394 11.556H19.7533C20.8947 11.556 21.508 12.801 20.7614 13.6024L12.1023 22.8983C11.1585 23.9116 9.39502 23.0039 9.82081 21.724L11.0931 17.8997C11.3578 17.1038 10.7169 16.2974 9.81969 16.2974H6.86818C5.78163 16.2974 5.1517 15.1553 5.78693 14.3369Z" fill="currentColor"/>
</symbol></svg>