<svg aria-hidden="true" xmlns="http://www.w3.org/2000/svg" xmlns:xlink="http://www.w3.org/1999/xlink"><symbol viewBox="0 0 24 24" fill="none" id="icon-arrow-down" xmlns="http://www.w3.org/2000/svg">
<path fill-rule="evenodd" clip-rule="evenodd" d="M5.24121 8.24665C5.56281 7.91778 6.08424 7.91778 6.40585 8.24665L12 13.967L17.5941 8.24665C17.9158 7.91778 18.4372 7.91778 18.7588 8.24665C19.0804 8.57551 19.0804 9.1087 18.7588 9.43756L12.5823 15.7534C12.2607 16.0822 11.7393 16.0822 11.4177 15.7534L5.24121 9.43756C4.9196 9.1087 4.9196 8.57551 5.24121 8.24665Z" fill="currentColor"/>
</symbol><symbol viewBox="0 0 32 32" fill="none" id="icon-bell" xmlns="http://www.w3.org/2000/svg">
<path d="M16.0001 7.33333C19.682 7.33333 22.6668 10.3181 22.6668 14V17.2396C22.6668 17.7294 22.8465 18.2022 23.172 18.5683L25.781 21.5035C26.6408 22.4708 25.9541 24 24.6599 24H7.34037C6.0461 24 5.35939 22.4708 6.21926 21.5035L8.82825 18.5683C9.15367 18.2022 9.33342 17.7294 9.33343 17.2396L9.33346 14C9.33346 10.3181 12.3182 7.33333 16.0001 7.33333ZM16.0001 7.33333V4M14.6667 28H17.3334" stroke="currentColor" stroke-width="2" stroke-linecap="round" stroke-linejoin="round"/>
</symbol><symbol viewBox="0 0 24 24" fill="none" id="icon-close" xmlns="http://www.w3.org/2000/svg">
<path fill-rule="evenodd" clip-rule="evenodd" d="M6.25105 6.25105C6.58579 5.91632 7.1285 5.91632 7.46323 6.25105L12 10.7878L16.5368 6.25105C16.8715 5.91632 17.4142 5.91632 17.7489 6.25105C18.0837 6.58579 18.0837 7.1285 17.7489 7.46323L13.2122 12L17.7489 16.5368C18.0837 16.8715 18.0837 17.4142 17.7489 17.7489C17.4142 18.0837 16.8715 18.0837 16.5368 17.7489L12 13.2122L7.46323 17.7489C7.1285 18.0837 6.58579 18.0837 6.25105 17.7489C5.91632 17.4142 5.91632 16.8715 6.25105 16.5368L10.7878 12L6.25105 7.46323C5.91632 7.1285 5.91632 6.58579 6.25105 6.25105Z" fill="currentColor"/>
</symbol><symbol viewBox="0 0 28 28" fill="none" id="icon-clover" xmlns="http://www.w3.org/2000/svg">
<path d="M25.9997 17.9951C25.9879 17.0049 25.5906 16.0785 24.8824 15.3869L23.3454 13.8865L24.8458 12.3495C25.5375 11.6407 25.9116 10.7055 25.8998 9.71526C25.888 8.72506 25.4908 7.7987 24.782 7.10704C23.9425 6.28769 22.8104 5.94895 21.728 6.08492C21.7422 5.94541 21.7487 5.80413 21.7469 5.66225C21.7351 4.67205 21.3378 3.74569 20.6296 3.05403C19.932 2.37301 19.0146 2 18.0415 2C18.0261 2 18.0107 2 17.9954 2C17.0052 2.01182 16.0788 2.40908 15.3872 3.11729L13.8868 4.65431L12.3498 3.15395C10.8866 1.72629 8.535 1.75466 7.10734 3.21779C6.2874 4.05783 5.94866 5.19167 6.08522 6.27468C4.99925 6.16414 3.87427 6.53066 3.05432 7.3707C2.36266 8.0795 1.98845 9.01473 2.00027 10.0049C2.0121 10.9951 2.40937 11.9215 3.11817 12.6131L4.6552 14.1135L3.1548 15.6505C2.46314 16.3593 2.08896 17.2945 2.10078 18.2847C2.1126 19.2749 2.50986 20.2013 3.21807 20.8929C3.93811 21.5952 4.87274 21.9452 5.80678 21.9452C5.96285 21.9452 6.11949 21.9352 6.27437 21.9157C6.16442 23.0016 6.53035 24.126 7.37039 24.946C8.06797 25.627 8.98547 26 9.95852 26C9.97389 26 9.98925 26 10.0046 26C10.9948 25.9882 11.9212 25.5909 12.6128 24.8827L14.1132 23.3457L15.6502 24.8461C16.359 25.5377 17.2949 25.9125 18.2845 25.9001C19.2747 25.8883 20.201 25.491 20.8927 24.7822C21.7126 23.9422 22.0514 22.8089 21.9148 21.7259C22.0401 21.7389 22.1666 21.7454 22.2925 21.7454C23.2567 21.7454 24.2209 21.3724 24.9463 20.6293C25.6379 19.9205 26.0116 18.9853 25.9997 17.9951ZM23.7829 19.4943C22.9807 20.316 21.66 20.3319 20.8383 19.5297L20.8288 19.5392L20.8164 19.5274L17.8452 16.8606C17.1057 16.1968 16.1043 15.9946 15.1655 16.3203C14.2244 16.6466 13.5611 17.4276 13.3902 18.4101C13.314 18.8499 13.2749 19.3542 13.2749 19.9075H14.9001C14.9001 19.447 14.9308 19.0361 14.9911 18.6879C15.0591 18.2966 15.3233 17.9856 15.6975 17.8556C16.0688 17.7267 16.4661 17.8071 16.7593 18.0701L19.7044 20.7132C20.0958 21.1005 20.3145 21.6159 20.321 22.1669C20.3275 22.7232 20.1177 23.2487 19.7293 23.6466C19.3409 24.0444 18.8207 24.2673 18.2644 24.2744C17.7093 24.2821 17.1825 24.071 16.7847 23.6826L14.0848 21.0472L11.4494 23.7471C11.061 24.1449 10.5408 24.3678 9.98453 24.3749C9.97566 24.3749 9.96739 24.3749 9.95852 24.3749C9.41229 24.3749 8.89677 24.165 8.50483 23.7831C7.68312 22.9809 7.66718 21.6603 8.46939 20.8386L8.45992 20.8291L8.47172 20.8167L11.1385 17.8455C11.8024 17.106 12.0045 16.1045 11.6788 15.1658C11.3525 14.2246 10.5716 13.5614 9.58905 13.3905C9.14922 13.3142 8.64495 13.2752 8.09162 13.2752V14.9003C8.55214 14.9003 8.96299 14.9311 9.31119 14.9914C9.70254 15.0594 10.0135 15.3236 10.1436 15.6978C10.2724 16.0697 10.192 16.4663 9.92897 16.7595L7.28588 19.7047C6.48308 20.5152 5.17009 20.5276 4.35251 19.7295C3.95466 19.3411 3.73179 18.8209 3.72469 18.2646C3.71819 17.7084 3.92807 17.1828 4.31646 16.785L6.95185 14.0851L4.25201 11.4497C3.85415 11.0613 3.63128 10.5411 3.62418 9.98482C3.61768 9.42853 3.82756 8.903 4.21595 8.50515C5.01816 7.68344 6.33882 7.66747 7.16054 8.46968L7.17001 8.46022L7.18242 8.47204L10.1536 11.1388C10.6602 11.594 11.2904 11.8316 11.9389 11.8316C12.2363 11.8316 12.5378 11.7814 12.8333 11.6791C13.7745 11.3528 14.4378 10.5718 14.6086 9.58933C14.6849 9.14892 14.7239 8.64526 14.7239 8.09193H13.0988C13.0988 8.55244 13.068 8.9627 13.0078 9.31149C12.9398 9.70284 12.6761 10.0138 12.3013 10.1439C11.9295 10.2727 11.5328 10.1923 11.2396 9.92925L8.29438 7.28617C7.90362 6.89896 7.68431 6.38346 7.67781 5.83249C7.67131 5.27621 7.88116 4.75068 8.26955 4.35283C8.65795 3.95498 9.17819 3.7321 9.73447 3.72501C10.2919 3.71791 10.8163 3.92837 11.2141 4.31676L13.914 6.95217L16.5494 4.25232C16.9378 3.85447 17.458 3.63161 18.0143 3.62451C18.0232 3.62451 18.0315 3.62451 18.0403 3.62451C18.5866 3.62451 19.102 3.83438 19.494 4.21686C19.8918 4.60525 20.1147 5.12548 20.1218 5.68176C20.1283 6.23804 19.9184 6.76357 19.53 7.16143L19.5395 7.17089L19.5277 7.18331L16.8609 10.1545C16.1971 10.894 15.9949 11.8955 16.3206 12.8342C16.6469 13.7754 17.4279 14.4386 18.4104 14.6095C18.8502 14.6858 19.3545 14.7248 19.9078 14.7248V13.0997C19.4467 13.0997 19.0364 13.0689 18.6882 13.0086C18.2969 12.9406 17.9859 12.6764 17.8559 12.3022C17.727 11.9303 17.8074 11.5337 18.0705 11.2404L20.7135 8.29529C21.1008 7.90394 21.6163 7.6852 22.1672 7.67869C22.1761 7.67869 22.1844 7.67869 22.1932 7.67869C22.7395 7.67869 23.255 7.88856 23.6469 8.27104C24.0448 8.65943 24.2676 9.17966 24.2747 9.73594C24.2812 10.2922 24.0714 10.8178 23.683 11.2156L21.0476 13.9155L23.7474 16.5509C24.1453 16.9393 24.3681 17.4595 24.3752 18.0158C24.3817 18.572 24.1719 19.0976 23.7835 19.4954L23.7829 19.4943Z" fill="currentColor"/>
</symbol><symbol viewBox="0 0 28 28" fill="none" id="icon-coins" xmlns="http://www.w3.org/2000/svg">
<path d="M8.16671 6.17144C4.7933 7.17542 2.33337 10.3004 2.33337 13.9999C2.33337 17.6994 4.7933 20.8244 8.16671 21.8284M25.6667 13.9999C25.6667 18.5102 22.0104 22.1666 17.5 22.1666C12.9897 22.1666 9.33337 18.5102 9.33337 13.9999C9.33337 9.48959 12.9897 5.83325 17.5 5.83325C22.0104 5.83325 25.6667 9.48959 25.6667 13.9999Z" stroke="currentColor" stroke-width="2" stroke-linecap="round" stroke-linejoin="round"/>
</symbol><symbol viewBox="0 0 24 24" fill="none" id="icon-dollar" xmlns="http://www.w3.org/2000/svg">
<path d="M17.0023 5H9.50171C7.56871 5 6.00171 6.567 6.00171 8.5V8.5C6.00171 10.433 7.56871 12 9.50171 12H14.5024C16.4354 12 18.0024 13.567 18.0024 15.5V15.5C18.0024 17.433 16.4354 19 14.5024 19H6.00171M12.002 3V21" stroke="currentColor" stroke-width="2" stroke-linecap="round" stroke-linejoin="round"/>
</symbol><symbol viewBox="0 0 28 28" fill="none" id="icon-friends" xmlns="http://www.w3.org/2000/svg">
<path d="M21.5893 22.1666H23.3333C24.622 22.1666 25.7447 21.0885 25.3353 19.8666C24.7115 18.0045 23.1765 16.8784 20.4782 16.4883M16.9168 12.6751C17.2563 12.7825 17.6451 12.8333 18.0833 12.8333C20.0278 12.8333 21 11.8333 21 9.33325C21 6.83325 20.0278 5.83325 18.0833 5.83325C17.6451 5.83325 17.2563 5.88405 16.9168 5.99136M11.0833 16.3333C15.4854 16.3333 17.741 17.6175 18.4315 20.186C18.7183 21.2527 17.7712 22.1666 16.6667 22.1666H5.5C4.39543 22.1666 3.44839 21.2527 3.73515 20.186C4.42567 17.6175 6.68123 16.3333 11.0833 16.3333ZM11.0833 12.8333C13.0278 12.8333 14 11.8333 14 9.33325C14 6.83325 13.0278 5.83325 11.0833 5.83325C9.13889 5.83325 8.16667 6.83325 8.16667 9.33325C8.16667 11.8333 9.13889 12.8333 11.0833 12.8333Z" stroke="currentColor" stroke-width="2" stroke-linecap="round" stroke-linejoin="round"/>
</symbol><symbol viewBox="0 0 24 24" fill="none" id="icon-points" xmlns="http://www.w3.org/2000/svg">
<path d="M14 6C14 7.10457 13.1046 8 12 8C10.8954 8 10 7.10457 10 6C10 4.89543 10.8954 4 12 4C13.1046 4 14 4.89543 14 6Z" fill="currentColor"/>
<path d="M14 12C14 13.1046 13.1046 14 12 14C10.8954 14 10 13.1046 10 12C10 10.8954 10.8954 10 12 10C13.1046 10 14 10.8954 14 12Z" fill="currentColor"/>
<path d="M14 18C14 19.1046 13.1046 20 12 20C10.8954 20 10 19.1046 10 18C10 16.8954 10.8954 16 12 16C13.1046 16 14 16.8954 14 18Z" fill="currentColor"/>
</symbol><symbol viewBox="0 0 24 24" fill="none" id="icon-star" xmlns="http://www.w3.org/2000/svg">
<path d="M11.0772 4.21955C11.4188 3.39828 12.5823 3.39828 12.9239 4.21955L14.7818 8.68645L19.6044 9.07305C20.491 9.14413 20.8506 10.2507 20.175 10.8293L16.5008 13.9765L17.6233 18.6823C17.8297 19.5475 16.8885 20.2313 16.1294 19.7677L12.0005 17.246L7.87169 19.7677C7.11258 20.2313 6.17135 19.5475 6.37775 18.6823L7.5003 13.9765L3.82608 10.8293C3.15051 10.2507 3.51003 9.14413 4.3967 9.07305L9.21924 8.68645L11.0772 4.21955Z" stroke="currentColor" stroke-width="2" stroke-linecap="round" stroke-linejoin="round"/>
</symbol><symbol viewBox="0 0 24 24" fill="none" id="icon-timer" xmlns="http://www.w3.org/2000/svg">
<path d="M12 9V13M10 2H14M17.6569 7.34315L19 6M12 21C16.4183 21 20 17.4183 20 13C20 8.58172 16.4183 5 12 5C7.58172 5 4 8.58172 4 13C4 17.4183 7.58172 21 12 21Z" stroke="currentColor" stroke-width="2" stroke-linecap="round" stroke-linejoin="round"/>
</symbol><symbol viewBox="0 0 28 28" fill="none" id="icon-zap" xmlns="http://www.w3.org/2000/svg">
<path d="M5.78693 14.3369L12.8926 5.18301C13.649 4.20867 15.3066 4.70535 15.3066 5.90631V10.3188C15.3066 11.0021 15.9033 11.556 16.6394 11.556H19.7533C20.8947 11.556 21.508 12.801 20.7614 13.6024L12.1023 22.8983C11.1585 23.9116 9.39502 23.0039 9.82081 21.724L11.0931 17.8997C11.3578 17.1038 10.7169 16.2974 9.81969 16.2974H6.86818C5.78163 16.2974 5.1517 15.1553 5.78693 14.3369Z" fill="currentColor"/>
</symbol></svg>